<?xml version="1.0" encoding="UTF-8" standalone="no"?>
<!-- Created with Inkscape (http://www.inkscape.org/) -->

<svg
   xmlns:dc="http://purl.org/dc/elements/1.1/"
   xmlns:cc="http://creativecommons.org/ns#"
   xmlns:rdf="http://www.w3.org/1999/02/22-rdf-syntax-ns#"
   xmlns:svg="http://www.w3.org/2000/svg"
   xmlns="http://www.w3.org/2000/svg"
   xmlns:sodipodi="http://sodipodi.sourceforge.net/DTD/sodipodi-0.dtd"
   xmlns:inkscape="http://www.inkscape.org/namespaces/inkscape"
   width="109.67669"
   height="48"
   viewBox="0 0 109.67669 48.000001"
   id="svg5248"
   version="1.1"
   inkscape:version="0.48.4 r9939"
   sodipodi:docname="DataSubmarine_logo.svg">
  <defs
     id="defs5250" />
  <sodipodi:namedview
     id="base"
     pagecolor="#ffffff"
     bordercolor="#666666"
     borderopacity="1.0"
     inkscape:pageopacity="0.0"
     inkscape:pageshadow="2"
     inkscape:zoom="3.959798"
     inkscape:cx="59.67789"
     inkscape:cy="3.3441887"
     inkscape:document-units="px"
     inkscape:current-layer="layer1"
     showgrid="false"
     inkscape:window-width="1280"
     inkscape:window-height="745"
     inkscape:window-x="0"
     inkscape:window-y="30"
     inkscape:window-maximized="1"
     fit-margin-top="0"
     fit-margin-left="0"
     fit-margin-right="0"
     fit-margin-bottom="0" />
  <metadata
     id="metadata5253">
    <rdf:RDF>
      <cc:Work
         rdf:about="">
        <dc:format>image/svg+xml</dc:format>
        <dc:type
           rdf:resource="http://purl.org/dc/dcmitype/StillImage" />
        <dc:title />
      </cc:Work>
    </rdf:RDF>
  </metadata>
  <g
     inkscape:label="Capa 1"
     inkscape:groupmode="layer"
     id="layer1"
     transform="translate(145.93359,-595.31821)">
    <g
       transform="matrix(2.1145712,0,0,2.1145712,-780.44176,-282.44389)"
       id="g5240">
      <path
         inkscape:connector-curvature="0"
         id="path3488"
         d="m 301.44556,435.34154 c 0,0 1.07287,-0.0211 3.75419,0.74483 2.24046,0.64001 3.07803,0.69354 12.6,0.80522 l 10.2,0.11963 0,-4.23519 0,-4.81172 -6.84808,0 -6.84807,3e-5 -0.86247,0.86243 c -0.78986,0.78981 -1.14788,0.89219 -4.25192,1.21546 -1.8642,0.19414 -4.31745,0.56316 -5.45166,0.82004 -1.38863,0.3145 -2.21493,0.4943 -2.29199,0.0678 -0.18237,-1.00931 -0.25449,-2.12415 -0.5956,-2.96573 l -0.78526,0 0,4.81165 0,5.02535 0.78526,0 c 0.24747,-0.74042 0.4204,-1.70277 0.5956,-2.4598 z"
         style="fill-opacity:1" />
      <path
         inkscape:connector-curvature="0"
         id="path3476"
         d="m 348.93018,436.19162 c 2.96918,-1.0117 3.96292,-3.84872 1.9442,-5.55047 -1.02939,-0.86776 -3.14385,-1.40176 -6.48976,-1.63897 l -3.03483,-0.21516 0,3.98901 0,4.27665 3.11834,-0.20161 c 1.71508,-0.11089 3.72301,-0.40763 4.46205,-0.65945 z"
         style="fill-opacity:1" />
      <g
         id="g3478"
         transform="matrix(1.0492308,0,0,1.0492308,-20.846707,44.996808)">
        <rect
           ry="0"
           y="364.50162"
           x="332.89835"
           height="9.1586742"
           width="3.9068801"
           id="rect3480"
           style="fill:#52018f;fill-opacity:1;stroke:none" />
        <rect
           style="fill:#02b176;fill-opacity:1;stroke:none"
           id="rect3482"
           width="3.8853571"
           height="13.958579"
           x="336.90912"
           y="359.69095"
           ry="0" />
        <rect
           ry="0"
           y="352.73926"
           x="340.92169"
           height="20.89769"
           width="3.8601818"
           id="rect3484"
           style="fill:#9a013a;fill-opacity:1;stroke:none" />
      </g>
    </g>
  </g>
</svg>
