<?xml version="1.0" encoding="UTF-8" standalone="no"?>
<!-- Created with Inkscape (http://www.inkscape.org/) -->

<svg
   xmlns:dc="http://purl.org/dc/elements/1.1/"
   xmlns:cc="http://creativecommons.org/ns#"
   xmlns:rdf="http://www.w3.org/1999/02/22-rdf-syntax-ns#"
   xmlns:svg="http://www.w3.org/2000/svg"
   xmlns="http://www.w3.org/2000/svg"
   xmlns:sodipodi="http://sodipodi.sourceforge.net/DTD/sodipodi-0.dtd"
   xmlns:inkscape="http://www.inkscape.org/namespaces/inkscape"
   width="109.67669"
   height="48"
   viewBox="0 0 109.67669 48.000001"
   id="svg5248"
   version="1.1"
   inkscape:version="0.91 r13725"
   sodipodi:docname="DataSubmarine_logo.svg">
  <defs
     id="defs5250" />
  <sodipodi:namedview
     id="base"
     pagecolor="#c1c1c1"
     bordercolor="#c3c3c3"
     borderopacity="1"
     inkscape:pageopacity="0"
     inkscape:pageshadow="2"
     inkscape:zoom="3.3956747"
     inkscape:cx="33.917735"
     inkscape:cy="2.6334435"
     inkscape:document-units="px"
     inkscape:current-layer="layer1"
     showgrid="false"
     inkscape:window-width="1366"
     inkscape:window-height="699"
     inkscape:window-x="0"
     inkscape:window-y="24"
     inkscape:window-maximized="1"
     fit-margin-top="0"
     fit-margin-left="0"
     fit-margin-right="0"
     fit-margin-bottom="0" />
  <metadata
     id="metadata5253">
    <rdf:RDF>
      <cc:Work
         rdf:about="">
        <dc:format>image/svg+xml</dc:format>
        <dc:type
           rdf:resource="http://purl.org/dc/dcmitype/StillImage" />
        <dc:title />
      </cc:Work>
    </rdf:RDF>
  </metadata>
  <g
     inkscape:label="Capa 1"
     inkscape:groupmode="layer"
     id="layer1"
     transform="translate(145.93359,-595.31821)">
    <path
       style="opacity:1;fill:#ffffff;fill-opacity:1;stroke:none;stroke-width:3;stroke-linecap:round;stroke-miterlimit:4;stroke-dasharray:none;stroke-opacity:1"
       id="path3342"
       ry="21.056198"
       rx="63.904827"
       cy="633.4527"
       cx="-92.630486" />
    <g
       id="g4153"
       transform="translate(-2.9857949e-6,6.0517577e-6)">
      <path
         inkscape:connector-curvature="0"
         id="path3488"
         d="m -143.01366,638.11679 c 0,0 2.26866,-0.0446 7.9385,1.575 4.73761,1.35335 6.50872,1.46654 26.6436,1.70269 l 21.568625,0.25297 0,-8.95561 0,-10.17473 -14.480755,0 -14.48073,7e-5 -1.82375,1.82367 c -1.67022,1.67011 -2.42728,1.8866 -8.99099,2.57017 -3.94198,0.41053 -9.12956,1.19085 -11.52792,1.73404 -2.93636,0.66503 -4.68363,1.04523 -4.84658,0.14337 -0.38563,-2.13426 -0.53814,-4.49167 -1.25944,-6.27125 l -1.66049,0 0,10.17457 0,10.62646 1.66049,0 c 0.52329,-1.56567 0.88897,-3.60062 1.25944,-5.20142 z"
         style="fill-opacity:1;stroke:none;stroke-width:0.5;stroke-opacity:1" />
      <path
         inkscape:connector-curvature="0"
         id="path3476"
         d="m -42.604051,639.91435 c 6.278543,-2.13931 8.379877,-8.1384 4.11115,-11.73687 -2.176719,-1.83494 -6.647895,-2.96412 -13.72306,-3.46572 l -6.417364,-0.45497 0,8.43505 0,9.04328 6.593952,-0.42632 c 3.626659,-0.23448 7.87257,-0.86196 9.435322,-1.39445 z"
         style="fill-opacity:1;stroke:none;stroke-width:0.5;stroke-opacity:1" />
      <g
         style="stroke:none;stroke-width:0.22535992;stroke-opacity:1"
         id="g3478"
         transform="matrix(2.2186732,0,0,2.2186732,-824.52361,-187.29494)">
        <rect
           ry="0"
           y="364.50162"
           x="332.89835"
           height="9.1586742"
           width="3.9068801"
           id="rect3480"
           style="fill:#52018f;fill-opacity:1;stroke:none;stroke-width:0.22535992;stroke-opacity:1" />
        <rect
           style="fill:#02b176;fill-opacity:1;stroke:none;stroke-width:0.22535992;stroke-opacity:1"
           id="rect3482"
           width="3.8853571"
           height="13.958579"
           x="336.90912"
           y="359.69095"
           ry="0" />
        <rect
           ry="0"
           y="352.73926"
           x="340.92169"
           height="20.89769"
           width="3.8601818"
           id="rect3484"
           style="fill:#9a013a;fill-opacity:1;stroke:none;stroke-width:0.22535992;stroke-opacity:1" />
      </g>
    </g>
  </g>
</svg>
